:SAMPLES-PER-SECOND 30
:FRAME-RANGE 1-564
:FULLY-SPECIFIED
:DEGREES
335
root  14.4869 39.8211 -64.4456 -178.785 -71.9846 -177.848
RightUpLeg  -3.9349 -4.04185 0.697833
RightLeg  7.84728 -21.4244 0.716412
RightFoot  -5.27825 0.0314763 -1.26974
RightToes  1.21801e-010 1.2921e-014 -6.02303e-014
Spine  -7.50565 2.60263 8.04081
Spine1  7.04475 3.64907 -6.10863
HEad  16.1647 7.77698 3.34243
LeftShoulder1  0.863216 -1.08822 -12.848
LeftArm  -4.53736 -2.23905 -29.7619
LeftForeArm  -11.6899 -65.7222 -27.7663
LeftHand  -0.166393 7.21951 -7.39886
RightShoulder  1.89221 5.09507 15.8741
RightArm  11.2851 39.5355 53.4117
RightForeArm  -13.1911 46.1177 12.5199
RightHand  -0.567463 -15.0063 5.62294
LeftUpLeg  -9.48934 -6.35529 -3.4068
LeftLeg  7.28682 -18.1608 0.541426
LeftFoot  0.587053 -0.269377 2.54436
LeftToes  1.70735e-010 3.74918e-011 3.68705e-011
336
root  14.2995 39.8205 -64.7014 -178.579 -70.335 -178.488
RightUpLeg  -3.17144 -4.09108 0.774812
RightLeg  7.80953 -19.8504 0.819573
RightFoot  -5.71744 0.0414914 -1.63304
RightToes  1.21801e-010 1.2921e-014 -6.02303e-014
Spine  -8.00229 3.03046 8.09517
Spine1  7.52939 4.23694 -6.64721
HEad  17.4226 7.02224 3.81629
LeftShoulder1  0.775156 -0.583538 -13.1605
LeftArm  -4.1837 -0.960374 -29.5063
LeftForeArm  -8.20394 -67.7687 -30.7996
LeftHand  -0.170388 7.52313 -6.52072
RightShoulder  1.88755 5.11962 15.7419
RightArm  12.0043 38.7593 53.8859
RightForeArm  -12.7007 46.8199 12.7971
RightHand  -0.516166 -15.157 4.94161
LeftUpLeg  -8.76448 -5.76455 -3.17116
LeftLeg  7.69674 -17.0176 0.261717
LeftFoot  -0.0877915 -0.26559 2.70096
LeftToes  1.70735e-010 3.74918e-011 3.68705e-011
337
root  14.1112 39.8019 -64.9076 -178.163 -68.7538 -179.387
RightUpLeg  -2.36985 -4.13466 0.680487
RightLeg  7.71902 -18.2503 0.795058
RightFoot  -6.31784 0.0319164 -1.70275
RightToes  1.21801e-010 1.2921e-014 -6.02303e-014
Spine  -8.34012 3.34118 8.08275
Spine1  7.67638 4.68551 -7.17016
HEad  18.6945 6.42823 3.99934
LeftShoulder1  0.714012 -0.267343 -13.2172
LeftArm  -3.77139 0.664909 -29.4508
LeftForeArm  -3.81109 -69.9029 -34.7361
LeftHand  -0.169513 7.92264 -5.40813
RightShoulder  1.82636 4.89208 15.6005
RightArm  13.2951 38.0028 54.9092
RightForeArm  -12.2865 47.2476 12.9628
RightHand  -0.383778 -15.1724 3.42417
LeftUpLeg  -7.87204 -5.38431 -3.27923
LeftLeg  7.87534 -15.8166 0.324187
LeftFoot  -0.915925 -0.243346 2.72789
LeftToes  1.70735e-010 3.74918e-011 3.68705e-011
338
root  13.9199 39.7883 -65.095 -178.051 -67.5781 179.983
RightUpLeg  -1.66169 -3.99735 0.77149
RightLeg  8.01357 -17.2095 0.29731
RightFoot  -6.93824 0.00542807 -1.3636
RightToes  1.21801e-010 1.2921e-014 -6.02303e-014
Spine  -8.70102 3.38022 7.96995
Spine1  7.85713 4.80106 -7.48335
HEad  19.7339 6.08748 3.979
LeftShoulder1  0.668575 -0.0331536 -13.2614
LeftArm  -3.39447 2.41941 -29.3655
LeftForeArm  1.13991 -71.8263 -39.2761
LeftHand  -0.168584 8.18206 -4.83449
RightShoulder  1.8393 4.90447 15.737
RightArm  14.0285 37.5547 55.2324
RightForeArm  -12.0311 47.0728 12.8683
RightHand  -0.288841 -14.7498 2.47552
LeftUpLeg  -6.84272 -4.98198 -3.43051
LeftLeg  7.86583 -15.0149 0.494526
LeftFoot  -1.70817 -0.214587 2.66894
LeftToes  1.70735e-010 3.74918e-011 3.68705e-011
339
root  13.7505 39.7765 -65.2548 -178.028 -66.7729 179.481
RightUpLeg  -0.997905 -4.42588 0.609536
RightLeg  8.29618 -16.041 0.261965
RightFoot  -7.47973 -0.00659261 -1.30709
RightToes  1.21801e-010 1.2921e-014 -6.02303e-014
Spine  -9.13487 3.24382 7.73508
Spine1  8.21403 4.66271 -7.478
HEad  20.2562 5.34446 3.76909
LeftShoulder1  0.60295 0.307676 -13.3567
LeftArm  -2.83479 3.76732 -29.7799
LeftForeArm  5.47051 -73.1765 -43.2996
LeftHand  -0.162251 8.39429 -4.23343
RightShoulder  1.91221 5.14499 15.9887
RightArm  13.5112 37.2494 55.2047
RightForeArm  -11.6642 46.6113 12.6409
RightHand  -0.323783 -14.5104 2.9844
LeftUpLeg  -5.88543 -4.28042 -3.52456
LeftLeg  7.75057 -14.8877 0.465467
LeftFoot  -2.28877 -0.197374 2.6677
LeftToes  1.70735e-010 3.74918e-011 3.68705e-011
340
root  13.5827 39.7647 -65.3829 -177.746 -66.3329 178.81
RightUpLeg  -0.551496 -4.98881 0.372393
RightLeg  8.81265 -15.0247 0.0444208
RightFoot  -8.11191 -0.0228704 -1.13754
RightToes  1.21801e-010 1.2921e-014 -6.02303e-014
Spine  -9.57064 3.00206 7.51488
Spine1  8.56607 4.44743 -7.62438
HEad  20.4604 4.24015 3.58442
LeftShoulder1  0.579649 0.415267 -13.2931
LeftArm  -2.28819 4.93021 -30.569
LeftForeArm  9.11772 -74.0634 -46.4294
LeftHand  -0.153514 8.43307 -3.86022
RightShoulder  1.95608 5.18341 16.4434
RightArm  12.5888 37.0445 54.3811
RightForeArm  -11.1653 46.4792 12.5521
RightHand  -0.319349 -13.8687 3.1988
LeftUpLeg  -5.05219 -3.6028 -3.7016
LeftLeg  7.54229 -14.9543 0.398517
LeftFoot  -2.75846 -0.187208 2.71652
LeftToes  1.70735e-010 3.74918e-011 3.68705e-011
341
root  13.4336 39.7269 -65.5044 -177.516 -65.7713 178.207
RightUpLeg  -0.457434 -6.04633 0.199435
RightLeg  9.98137 -13.3101 -0.475382
RightFoot  -9.08188 -0.0436279 -0.906275
RightToes  1.21801e-010 1.2921e-014 -6.02303e-014
Spine  -9.79746 2.65838 7.1503
Spine1  8.71988 4.10966 -7.82422
HEad  20.4731 3.0363 3.33604
LeftShoulder1  0.566082 0.457567 -13.0962
LeftArm  -1.93795 6.15129 -31.3679
LeftForeArm  12.5446 -74.7717 -49.3155
LeftHand  -0.139225 8.47104 -3.30009
RightShoulder  1.94528 5.03838 16.7371
RightArm  12.1018 36.7746 53.9834
RightForeArm  -10.4494 46.7696 12.6343
RightHand  -0.323822 -13.4712 3.44802
LeftUpLeg  -4.42578 -2.60601 -3.71914
LeftLeg  7.69939 -15.1875 0.0250557
LeftFoot  -3.52729 -0.170651 2.81009
LeftToes  1.70735e-010 3.74918e-011 3.68705e-011
